its WWE.Monday.Night.Raw.2011.06.20.Power.To.The.People of 20th june 2011 in flv format! its in 9 parts . size is low but quality is good! use vlc player to enhance volume!! rest share ur views in comments!!


Video
Format                           : AVC
Format/Info                      : Advanced Video Codec
Format profile                   : Main@L3.0
Format settings, CABAC           : Yes
Format settings, ReFrames        : 3 frames
Muxing mode                      : Container profile=Unknown@3.0
Duration                         : 15mn 5s
Bit rate                         : 720 Kbps
Width                            : 634 pixels
Height                           : 360 pixels
Display aspect ratio             : 16:9
Frame rate mode                  : Variable
Frame rate                       : 29.970 fps
Color space                      : YUV
Chroma subsampling               : 4:2:0
Bit depth                        : 8 bits
Scan type                        : Progressive
Bits/(Pixel*Frame)               : 0.105
Stream size                      : 77.8 MiB (84%)

Audio
Format                           : AAC
Format/Info                      : Advanced Audio Codec
Format version                   : Version 4
Format profile                   : LC
Format settings, SBR             : No
Duration                         : 15mn 5s
Bit rate                         : 129 Kbps
Channel(s)                       : 2 channels
Channel positions                : Front: L R
Sampling rate                    : 44.1 KHz
Bit depth                        : 16 bits
Stream size                      : 13.9 MiB (15%)
